<svg xmlns="http://www.w3.org/2000/svg" viewBox="0 0 700 500">
  <rect width="700" height="500" fill="#d8b890"/>
  <rect x="95" y="80" width="510" height="340" rx="8" fill="#9c6c44"/>
  <rect x="125" y="110" width="450" height="280" fill="#ead7bd"/>
  <line x1="125" y1="205" x2="575" y2="205" stroke="#9c6c44" stroke-width="18"/>
  <line x1="125" y1="300" x2="575" y2="300" stroke="#9c6c44" stroke-width="18"/>
  <g>
    <rect x="150" y="125" width="24" height="70" fill="#f8f0df"/><rect x="184" y="118" width="18" height="77" fill="#2f2d29"/><rect x="216" y="135" width="30" height="60" fill="#b48558"/><rect x="258" y="122" width="20" height="73" fill="#fff8ec"/>
    <rect x="150" y="225" width="22" height="65" fill="#76604a"/><rect x="184" y="218" width="30" height="72" fill="#fbf2df"/><rect x="228" y="238" width="20" height="52" fill="#c99d69"/><rect x="263" y="220" width="28" height="70" fill="#2f2d29"/>
    <rect x="365" y="320" width="24" height="58" fill="#fff8ec"/><rect x="400" y="312" width="18" height="66" fill="#6d755c"/><rect x="432" y="330" width="31" height="48" fill="#bd8e61"/><rect x="476" y="315" width="22" height="63" fill="#2f2d29"/>
  </g>
</svg>
