<svg xmlns="http://www.w3.org/2000/svg" viewBox="0 0 1600 950" role="img" aria-label="Теплая комната книжного клуба">
  <defs>
    <linearGradient id="wall" x1="0" y1="0" x2="1" y2="1">
      <stop offset="0" stop-color="#f6ead8"/>
      <stop offset="1" stop-color="#d7b98f"/>
    </linearGradient>
    <linearGradient id="table" x1="0" y1="0" x2="1" y2="0">
      <stop offset="0" stop-color="#a87345"/>
      <stop offset="1" stop-color="#d2a16d"/>
    </linearGradient>
  </defs>
  <rect width="1600" height="950" fill="url(#wall)"/>
  <rect y="570" width="1600" height="380" fill="#caa273"/>
  <rect x="120" y="145" width="880" height="300" rx="8" fill="#a8744a"/>
  <rect x="155" y="178" width="810" height="235" fill="#e8d4b9"/>
  <g opacity=".95">
    <rect x="190" y="198" width="26" height="198" fill="#efe7d8"/>
    <rect x="228" y="220" width="20" height="176" fill="#6e5945"/>
    <rect x="260" y="190" width="34" height="206" fill="#f7f0e3"/>
    <rect x="308" y="210" width="23" height="186" fill="#b89165"/>
    <rect x="348" y="198" width="32" height="198" fill="#2d2b28"/>
    <rect x="398" y="225" width="22" height="171" fill="#f4ead9"/>
    <rect x="438" y="205" width="30" height="191" fill="#846548"/>
    <rect x="486" y="188" width="24" height="208" fill="#f9f3e9"/>
    <rect x="532" y="214" width="34" height="182" fill="#c4935f"/>
    <rect x="585" y="198" width="22" height="198" fill="#f5e8cf"/>
    <rect x="625" y="184" width="36" height="212" fill="#4e4d45"/>
    <rect x="678" y="210" width="22" height="186" fill="#efe7d9"/>
    <rect x="720" y="198" width="32" height="198" fill="#9b724e"/>
    <rect x="770" y="216" width="24" height="180" fill="#f8efe2"/>
    <rect x="815" y="188" width="30" height="208" fill="#d6b58b"/>
    <rect x="865" y="214" width="24" height="182" fill="#383631"/>
    <rect x="906" y="202" width="28" height="194" fill="#f8efe2"/>
  </g>
  <rect x="180" y="640" width="1240" height="180" rx="16" fill="url(#table)"/>
  <ellipse cx="520" cy="720" rx="170" ry="54" fill="#f8f0df"/>
  <rect x="370" y="682" width="300" height="72" rx="4" fill="#fbf7ed"/>
  <line x1="520" y1="684" x2="520" y2="754" stroke="#d0b389" stroke-width="5"/>
  <ellipse cx="935" cy="716" rx="150" ry="48" fill="#f8f0df"/>
  <rect x="800" y="683" width="270" height="64" rx="4" fill="#fbf7ed"/>
  <line x1="934" y1="684" x2="934" y2="748" stroke="#d0b389" stroke-width="5"/>
  <rect x="1110" y="675" width="190" height="34" rx="4" fill="#7b5034"/>
  <rect x="1124" y="638" width="195" height="34" rx="4" fill="#d9b988"/>
  <circle cx="700" cy="700" r="48" fill="#ead9c1"/>
  <circle cx="700" cy="700" r="32" fill="#c18f58"/>
  <path d="M745 692c38-8 45 45 4 42" fill="none" stroke="#ead9c1" stroke-width="14"/>
  <circle cx="260" cy="735" r="42" fill="#f0e1c8"/>
  <path d="M300 730c34-8 39 40 4 38" fill="none" stroke="#f0e1c8" stroke-width="12"/>
  <g stroke="#80633d" stroke-width="7" fill="none" opacity=".65">
    <path d="M1220 260c80 80 76 168 36 240"/>
    <path d="M1295 230c96 118 88 226 30 310"/>
    <path d="M1365 195c110 160 92 285 18 380"/>
  </g>
  <circle cx="1340" cy="190" r="90" fill="#7f8969" opacity=".35"/>
  <circle cx="1422" cy="265" r="92" fill="#9ca67f" opacity=".32"/>
  <circle cx="1295" cy="300" r="80" fill="#687457" opacity=".25"/>
</svg>
